:SAMPLES-PER-SECOND 30
:FULLY-SPECIFIED
:DEGREES
51
root  10.3715 40.0494 0.64924 -59.7514 -88.4822 58.1707
RightUpLeg  -0.974912 -9.691 -5.09691
RightLeg  3.73696 1.47173 1.68978
RightFoot  -1.85275 -0.0968876 1.01731
RightToes  2.91037e-010 0 -3.6325e-017
Spine  9.44741 -0.786916 6.30715
Spine1  3.43486 0.217281 -2.81565
HEad  -5.63747 8.29113 -9.54868
LeftShoulder1  -0.112782 3.92198 -20.5409
LeftArm  -22.5158 9.00666 -34.7492
LeftForeArm  32.8395 -23.9234 -3.40163
LeftHand  -0.109087 0.822015 2.6721
RightShoulder  -0.284246 -4.61033 18.443
RightArm  -11.0722 -7.215 27.6433
RightForeArm  13.8084 18.3754 1.79755
RightHand  -0.409534 4.40016 -5.14309
LeftUpLeg  -2.12484 6.08457 3.6442
LeftLeg  3.2483 -3.67866 0.398278
LeftFoot  -0.953432 0.280378 -3.03447
LeftToes  -7.53974e-010 3.3384e-011 -1.25048e-011
52
root  10.5489 40.0352 0.756054 -41.6644 -87.3854 40.3947
RightUpLeg  -1.486 -10.3229 -5.87226
RightLeg  3.96017 0.999925 1.9369
RightFoot  -1.84373 -0.119208 1.28269
RightToes  2.91037e-010 0 -3.6325e-017
Spine  9.48636 -0.801537 7.06361
Spine1  4.47564 0.341957 -3.09555
HEad  -5.16437 8.96189 -10.479
LeftShoulder1  -0.170458 4.08596 -22.9895
LeftArm  -18.3002 8.43796 -37.8721
LeftForeArm  33.6942 -22.6857 -3.12536
LeftHand  -0.0042252 1.52104 -0.174218
RightShoulder  -0.361843 -4.84797 19.9131
RightArm  -7.15337 -5.9307 31.7294
RightForeArm  13.5066 16.3741 1.2973
RightHand  -0.377509 3.87462 -4.99447
LeftUpLeg  -3.16556 5.94436 3.24761
LeftLeg  4.09801 -2.8398 0.0653418
LeftFoot  -2.60518 0.314203 -3.9027
LeftToes  -7.53974e-010 3.3384e-011 -1.25048e-011
53
root  10.6831 40.0459 0.881287 -35.2329 -86.3264 34.2208
RightUpLeg  -1.81353 -10.7653 -6.56015
RightLeg  4.01009 0.517717 1.98774
RightFoot  -1.63036 -0.148775 1.62
RightToes  2.91037e-010 0 -3.6325e-017
Spine  9.37287 -0.802365 7.77857
Spine1  5.40438 0.528465 -3.60896
HEad  -4.59322 9.89743 -11.4386
LeftShoulder1  -0.209807 4.17381 -25.0407
LeftArm  -14.1084 9.26269 -40.6192
LeftForeArm  32.3215 -21.6337 -3.13104
LeftHand  0.0124389 3.28404 -1.59229
RightShoulder  -0.406852 -4.94103 21.2949
RightArm  -3.72391 -4.73409 35.7473
RightForeArm  13.2351 14.1465 1.24698
RightHand  -0.353954 4.0955 -4.605
LeftUpLeg  -3.829 6.56617 3.29385
LeftLeg  4.7722 1.87377 -0.228445
LeftFoot  -4.04062 0.311734 -4.51536
LeftToes  -7.53974e-010 3.3384e-011 -1.25048e-011
54
root  10.7839 40.0791 1.01307 -32.607 -85.3076 31.7713
RightUpLeg  -1.8445 -11.2012 -7.31713
RightLeg  3.77657 0.183409 2.05976
RightFoot  -1.3165 -0.177003 1.91411
RightToes  2.91037e-010 0 -3.6325e-017
Spine  9.3242 -0.740875 8.20352
Spine1  6.13076 0.800813 -4.28057
HEad  -4.00771 10.2873 -11.953
LeftShoulder1  -0.300885 4.40794 -27.0424
LeftArm  -10.4116 10.7719 -42.425
LeftForeArm  31.0576 -20.4407 -3.3207
LeftHand  0.0317152 2.79469 -2.1828
RightShoulder  -0.522266 -5.24836 23.1467
RightArm  -2.00822 -3.6489 39.3381
RightForeArm  13.2095 12.5366 1.47901
RightHand  -0.358168 3.59221 -4.87648
LeftUpLeg  -4.06813 7.69449 3.78669
LeftLeg  5.22264 6.45472 -0.568746
LeftFoot  -5.32591 0.285123 -4.79426
LeftToes  -7.53974e-010 3.3384e-011 -1.25048e-011
55
root  10.8864 40.1033 1.18106 -28.4243 -84.0535 27.7831
RightUpLeg  -1.90942 -11.5217 -7.97958
RightLeg  3.66681 -0.616945 1.98967
RightFoot  -1.00337 -0.218627 2.34039
RightToes  2.91037e-010 0 -3.6325e-017
Spine  9.50167 -0.651452 8.2959
Spine1  6.28817 0.943358 -4.37744
HEad  -3.54642 10.3545 -12.1519
LeftShoulder1  -0.436154 4.70728 -30.0573
LeftArm  -7.04091 12.5647 -42.7419
LeftForeArm  29.8186 -19.2451 -3.7708
LeftHand  0.0107098 3.42256 -1.73806
RightShoulder  -0.59268 -5.41879 24.1965
RightArm  -1.46879 -3.81193 43.0468
RightForeArm  13.2263 12.2776 1.7275
RightHand  -0.332917 3.52249 -4.58381
LeftUpLeg  -4.39138 8.30651 4.32759
LeftLeg  5.73547 7.93875 -0.473474
LeftFoot  -5.82447 0.228009 -4.01481
LeftToes  -7.53974e-010 3.3384e-011 -1.25048e-011
56
root  10.9528 40.1039 1.38824 -24.2502 -82.6537 23.763
RightUpLeg  -1.80642 -11.8105 -8.59879
RightLeg  3.5323 -1.64442 1.8795
RightFoot  -0.828829 -0.255301 2.71242
RightToes  2.91037e-010 0 -3.6325e-017
Spine  9.37936 -0.650864 8.61816
Spine1  6.57852 1.09782 -4.88003
HEad  -3.15841 9.92605 -11.6954
LeftShoulder1  -0.610479 5.09347 -32.2759
LeftArm  -4.12179 14.6747 -42.6487
LeftForeArm  28.2321 -17.7471 -4.54853
LeftHand  -0.00724726 3.97552 -1.15197
RightShoulder  -0.723672 -5.73741 25.7095
RightArm  -0.273113 -4.07336 45.9905
RightForeArm  12.3061 12.902 2.26956
RightHand  -0.399916 3.64153 -5.40264
LeftUpLeg  -4.74186 8.66895 5.05672
LeftLeg  6.41396 7.02481 -0.191521
LeftFoot  -5.72097 0.23499 -4.08336
LeftToes  -7.53974e-010 3.3384e-011 -1.25048e-011
57
root  11.0126 40.0866 1.64229 -21.139 -81.1844 20.4921
RightUpLeg  -1.46407 -12.304 -9.3957
RightLeg  3.783 -2.48885 1.90779
RightFoot  -0.767304 -0.285672 3.02962
RightToes  2.91037e-010 0 -3.6325e-017
Spine  9.09157 -0.483816 8.91259
Spine1  7.41564 1.44158 -5.31664
HEad  -2.80576 8.52555 -11.2109
LeftShoulder1  -0.707863 5.27211 -33.8749
LeftArm  -5.44424 16.4114 -42.7191
LeftForeArm  30.1891 -15.0986 -5.33318
LeftHand  0.0128938 3.30009 -1.81889
RightShoulder  -0.894732 -6.13997 27.3749
RightArm  1.99642 -4.1004 47.9999
RightForeArm  12.6033 14.2473 2.96548
RightHand  -0.358158 3.55732 -4.82131
LeftUpLeg  -4.56399 8.93601 6.10384
LeftLeg  6.83065 4.39957 -0.0842201
LeftFoot  -5.26992 0.269823 -4.49265
LeftToes  -7.53974e-010 3.3384e-011 -1.25048e-011
